<?xml version="1.0" encoding="iso-8859-1"?>
<!-- Generator: Adobe Illustrator 17.1.0, SVG Export Plug-In . SVG Version: 6.00 Build 0)  -->
<!DOCTYPE svg PUBLIC "-//W3C//DTD SVG 1.1//EN" "http://www.w3.org/Graphics/SVG/1.1/DTD/svg11.dtd">
<svg version="1.1" id="Capa_1" xmlns="http://www.w3.org/2000/svg" xmlns:xlink="http://www.w3.org/1999/xlink" x="0px" y="0px"
	 viewBox="0 0 416.752 416.752" style="enable-background:new 0 0 416.752 416.752;" xml:space="preserve">
<path d="M167.931,356.642c0,28.013-25.037,48.154-74.417,59.865c-0.698,0.166-1.397,0.245-2.085,0.245
	c-4.075,0-7.768-2.787-8.749-6.925c-1.147-4.836,1.844-9.687,6.68-10.834c27.633-6.553,60.571-19.22,60.571-42.351
	c0-4.971,4.029-9,9-9S167.931,351.671,167.931,356.642z M275.452,176.42h0.003c4.971,0,8.998-4.029,8.998-9s-4.03-9-9.001-9
	s-9,4.029-9,9S270.482,176.42,275.452,176.42z M137.327,176.42c4.971,0,9-4.029,9-9s-4.029-9-9-9h-0.004
	c-4.971,0-8.998,4.029-8.998,9S132.357,176.42,137.327,176.42z M322.205,398.993c-27.634-6.553-60.573-19.22-60.573-42.351
	c0-4.971-4.029-9-9-9c-4.971,0-9,4.029-9,9c0,28.013,25.038,48.155,74.42,59.865c0.698,0.166,1.396,0.245,2.084,0.245
	c4.075,0,7.768-2.787,8.749-6.925C330.032,404.99,327.041,400.14,322.205,398.993z M257.81,327.564
	c-19.86,11.575-35.714,16.748-51.404,16.775c-15.722-0.027-31.575-5.2-51.435-16.774c-41.225-24.029-69.879-67.607-76.65-116.572
	c-1.057-7.641-1.593-15.457-1.593-23.231c0-1.268,0.011-2.541,0.032-3.809c-2.731-4.381-4.59-9.301-5.267-14.46l-1.524-11.623
	c-1.15-8.779,1.414-17.187,7.034-23.068c2.392-2.502,5.262-4.462,8.438-5.819c0.017-0.055,0.034-0.109,0.052-0.164
	c6.556-20.146,16.65-37.669,30.003-52.083c3.379-3.646,9.074-3.864,12.719-0.486c3.646,3.378,3.864,9.072,0.486,12.719
	c-1.394,1.504-2.747,3.05-4.059,4.634l163.509,0.001c-7.885-9.533-17.2-17.551-27.783-23.837c-4.273-2.539-5.68-8.061-3.141-12.334
	c2.538-4.273,8.063-5.679,12.334-3.141c27.229,16.175,47.172,41.97,57.776,74.694c3.177,1.355,6.044,3.315,8.436,5.817
	c5.621,5.882,8.186,14.29,7.036,23.068l-1.524,11.624c-0.677,5.159-2.536,10.08-5.267,14.461c0.021,1.261,0.032,2.53,0.032,3.808
	C336.051,245.865,306.071,299.435,257.81,327.564z M315.303,144.823l-66.938,5.699c-8.049,0.686-16.063,8.56-17.148,16.849
	l-1.525,11.625c-0.446,3.395,0.335,6.338,2.197,8.289c1.765,1.846,4.339,2.682,7.461,2.416L306.287,184
	c8.049-0.686,16.063-8.559,17.15-16.848l1.524-11.623c0.445-3.396-0.337-6.341-2.201-8.292c-1.549-1.621-3.729-2.462-6.349-2.462
	C316.051,144.775,315.681,144.791,315.303,144.823z M105.088,127.406l60.854,5.181c13.352,1.138,25.49,10.614,30.852,23.032
	c2.685-0.392,5.399-0.587,8.115-0.587c3.645,0,7.292,0.352,10.878,1.053c5.255-12.646,17.53-22.345,31.05-23.497l60.853-5.181
	c-2.133-5.531-4.583-10.806-7.336-15.804l-187.929-0.001C109.667,116.604,107.219,121.877,105.088,127.406z M106.492,184
	L106.492,184l66.938,5.7c3.109,0.266,5.695-0.57,7.459-2.417c1.863-1.95,2.645-4.894,2.198-8.289l-1.524-11.623
	c-1.086-8.291-9.1-16.165-17.149-16.851l-66.938-5.699c-3.118-0.267-5.696,0.569-7.46,2.415c-1.864,1.951-2.646,4.895-2.2,8.292
	l1.524,11.622c0.359,2.744,1.479,5.443,3.107,7.851c0.433,0.47,0.816,0.986,1.143,1.54C96.905,180.626,101.693,183.591,106.492,184z
	 M248.746,312.013c39.471-23.007,65.138-65.364,68.842-112.44c-3.122,1.259-6.409,2.075-9.773,2.361l-66.939,5.701
	c-8.488,0.721-16.506-2.165-22.002-7.917c-5.619-5.882-8.182-14.289-7.03-23.065l0.385-2.927c-3.868-0.748-7.839-0.899-11.734-0.444
	l0.442,3.372c1.151,8.775-1.411,17.182-7.03,23.064c-5.497,5.753-13.517,8.638-22.001,7.918l-66.939-5.701
	c-3.366-0.287-6.656-1.104-9.779-2.364c0.233,3.005,0.556,5.996,0.965,8.956c6.021,43.533,31.398,82.22,67.884,103.487
	c16.964,9.886,30.031,14.305,42.371,14.326C218.713,326.318,231.782,321.9,248.746,312.013z M330.819,47.253
	c-0.051-0.053-0.103-0.106-0.155-0.158C300.675,17.165,256.103,0,208.376,0S116.078,17.165,86.09,47.095
	c-0.053,0.052-0.104,0.105-0.155,0.158c-52.616,55.164-74.172,139.34-64.068,250.19c0.354,3.883,0.757,7.883,1.197,11.891
	c0.081,0.869,0.289,1.73,0.627,2.556c0.344,0.844,0.811,1.62,1.376,2.307c14.321,17.997,34.363,31.099,56.453,36.901
	c4.451,1.171,8.997-1.207,10.65-5.379c3.76-8.979,6.263-18.512,7.44-28.337c0.591-4.935-2.931-9.415-7.866-10.006
	c-4.929-0.589-9.415,2.93-10.007,7.866c-0.655,5.472-1.803,10.829-3.426,16.006c-14.505-5.313-27.598-14.467-37.626-26.383
	c-0.324-3.055-0.623-6.09-0.894-9.054C30.186,190.414,50.064,110.998,98.884,59.757C125.524,33.218,165.423,18,208.376,18
	s82.854,15.218,109.493,41.756c48.819,51.243,68.697,130.658,59.09,236.056c-0.271,2.984-0.569,6.019-0.891,9.053
	c-10.03,11.916-23.122,21.069-37.628,26.382c-1.623-5.177-2.771-10.534-3.428-16.007c-0.592-4.936-5.082-8.455-10.007-7.865
	c-4.936,0.592-8.456,5.072-7.864,10.007c1.178,9.826,3.681,19.358,7.44,28.335c1.368,3.455,4.72,5.678,8.358,5.678
	c0.757,0,1.526-0.097,2.292-0.298c22.092-5.803,42.14-18.909,56.463-36.909c0.539-0.658,0.989-1.396,1.327-2.198
	c0.363-0.858,0.585-1.756,0.67-2.662c0.436-3.974,0.837-7.973,1.192-11.886C404.99,186.595,383.435,102.419,330.819,47.253z
	 M213.531,274.487c-4.063,2.368-6.029,2.645-7.127,2.646c-1.125-0.001-3.089-0.278-7.151-2.646
	c-4.298-2.503-9.806-1.049-12.308,3.244c-2.503,4.294-1.051,9.805,3.243,12.308c6.032,3.515,11.024,5.086,16.216,5.094
	c5.164-0.008,10.157-1.579,16.189-5.093c4.295-2.502,5.747-8.013,3.245-12.308C223.336,273.438,217.826,271.984,213.531,274.487z
	 M203.364,249.431h6.052c4.971,0,9-4.029,9-9s-4.029-9-9-9h-6.052c-4.971,0-9,4.029-9,9S198.393,249.431,203.364,249.431z"/>
<g>
</g>
<g>
</g>
<g>
</g>
<g>
</g>
<g>
</g>
<g>
</g>
<g>
</g>
<g>
</g>
<g>
</g>
<g>
</g>
<g>
</g>
<g>
</g>
<g>
</g>
<g>
</g>
<g>
</g>
</svg>
